<svg width="11" height="11" viewBox="0 0 11 11" fill="none" xmlns="http://www.w3.org/2000/svg">
<path fill-rule="evenodd" clip-rule="evenodd" d="M5.5 0C2.46738 0 0 2.46717 0 5.5C0 8.53283 2.46738 11 5.5 11C8.53262 11 11 8.53283 11 5.5C11 2.46717 8.53262 0 5.5 0ZM8.56615 3.66574L5.18153 7.47343C5.09819 7.56714 4.98205 7.61537 4.86507 7.61537C4.77221 7.61537 4.67892 7.58491 4.60086 7.52272L2.48548 5.83041C2.30313 5.68466 2.27351 5.41833 2.41948 5.23578C2.56523 5.05322 2.83176 5.0236 3.01411 5.16957L4.81578 6.61078L7.93365 3.10326C8.08849 2.92853 8.3563 2.91287 8.53082 3.06814C8.70555 3.22362 8.72142 3.49101 8.56615 3.66574Z" fill="url(#paint0_linear)"/>
<defs>
<linearGradient id="paint0_linear" x1="5.5" y1="0" x2="5.5" y2="11" gradientUnits="userSpaceOnUse">
<stop stop-color="#707CFF"/>
<stop offset="1" stop-color="#6688FF"/>
</linearGradient>
</defs>
</svg>
