<svg width="20" height="20" viewBox="0 0 58 58" fill="none" xmlns="http://www.w3.org/2000/svg">
<path d="M20.5664 48.8729C21.0346 48.8593 21.4034 48.4691 21.3907 48.001C21.3763 47.5327 20.9786 47.1668 20.5187 47.1776L14.2197 47.3592C14.2176 47.3571 14.2144 47.3556 14.2122 47.3535L14.0626 47.3635L13.7793 47.3721C13.7559 47.3727 13.7363 47.3845 13.7134 47.387L-0.000108662 48.3086L6.5534 36.6455C5.12782 32.6941 4.71078 28.3226 5.56243 23.8982C8.08597 10.7882 20.7596 2.20609 33.8696 4.72963C46.9795 7.25317 55.5617 19.9268 53.0381 33.0368C50.5146 46.1467 37.8409 54.7289 24.731 52.2053C21.73 51.6277 18.9685 50.5148 16.5215 48.9891L20.5664 48.8729Z" fill="url(#paint0_linear)"/>
<defs>
<linearGradient id="paint0_linear" x1="33.4531" y1="4.64947" x2="24.1542" y2="52.9581" gradientUnits="userSpaceOnUse">
<stop stop-color="#7C6BFF"/>
<stop offset="1" stop-color="#48AAFF"/>
</linearGradient>
</defs>
</svg>
